HIERARCHY
ROOT Hips
{
  OFFSET 5.72205e-005 65.662 3.42586
  CHANNELS 6 Xposition Yposition Zposition Zrotation Xrotation Yrotation
  JOINT Chest
  {
    OFFSET 0 8.7983 -4.7612
    CHANNELS 6 Xposition Yposition Zposition Zrotation Xrotation Yrotation
    JOINT Chest2
    {
      OFFSET 0 8.0291 0.4195
      CHANNELS 6 Xposition Yposition Zposition Zrotation Xrotation Yrotation
      JOINT Chest3
      {
        OFFSET 0 9.9351 -2.2114
        CHANNELS 6 Xposition Yposition Zposition Zrotation Xrotation Yrotation
        JOINT Neck
        {
          OFFSET 0 22.3885 -0.4656
          CHANNELS 6 Xposition Yposition Zposition Zrotation Xrotation Yrotation
          JOINT Head
          {
            OFFSET -0.0001 12.643 3.4389
            CHANNELS 6 Xposition Yposition Zposition Zrotation Xrotation Yrotation
            End Site
            {
              OFFSET 0.0001 17.6655 0.5274
            }
          }
        }
        JOINT LeftCollar
        {
          OFFSET 2.2603 21.606 7.4023
          CHANNELS 6 Xposition Yposition Zposition Zrotation Xrotation Yrotation
          JOINT LeftShoulder
          {
            OFFSET 13.5163 -1.1332 -5.0146
            CHANNELS 6 Xposition Yposition Zposition Zrotation Xrotation Yrotation
            JOINT LeftElbow
            {
              OFFSET -0.0995 -28.05 -0.2431
              CHANNELS 6 Xposition Yposition Zposition Zrotation Xrotation Yrotation
              JOINT LeftWrist
              {
                OFFSET 0.0679 -23.3996 -0.1402
                CHANNELS 6 Xposition Yposition Zposition Zrotation Xrotation Yrotation
                JOINT LeftFinger1
                {
                  OFFSET 0.7932 -9.069 2.5189
                  CHANNELS 6 Xposition Yposition Zposition Zrotation Xrotation Yrotation
                  JOINT LeftFinger11
                  {
                    OFFSET -0.8272 -3.3923 0.5977
                    CHANNELS 6 Xposition Yposition Zposition Zrotation Xrotation Yrotation
                    JOINT LeftFinger12
                    {
                      OFFSET -0.5649 -2.3158 0.4082
                      CHANNELS 6 Xposition Yposition Zposition Zrotation Xrotation Yrotation
                      End Site
                      {
                        OFFSET -0.4919 -1.6479 0.2673
                      }
                    }
                  }
                }
                JOINT LeftFinger2
                {
                  OFFSET 0.9159 -9.2044 0.2193
                  CHANNELS 6 Xposition Yposition Zposition Zrotation Xrotation Yrotation
                  JOINT LeftFinger21
                  {
                    OFFSET 0.0117 -4.1944 -0.0248
                    CHANNELS 6 Xposition Yposition Zposition Zrotation Xrotation Yrotation
                    JOINT LeftFinger22
                    {
                      OFFSET 0.0071 -2.3249 -0.0142
                      CHANNELS 6 Xposition Yposition Zposition Zrotation Xrotation Yrotation
                      End Site
                      {
                        OFFSET -0.1475 -2.0882 0.0028
                      }
                    }
                  }
                }
                JOINT LeftFinger3
                {
                  OFFSET 0.6113 -8.7231 -2.0637
                  CHANNELS 6 Xposition Yposition Zposition Zrotation Xrotation Yrotation
                  JOINT LeftFinger31
                  {
                    OFFSET -0.1927 -3.8059 -0.2383
                    CHANNELS 6 Xposition Yposition Zposition Zrotation Xrotation Yrotation
                    JOINT LeftFinger32
                    {
                      OFFSET -0.1091 -2.1688 -0.1362
                      CHANNELS 6 Xposition Yposition Zposition Zrotation Xrotation Yrotation
                      End Site
                      {
                        OFFSET -0.2358 -1.9176 -0.0906
                      }
                    }
                  }
                }
                JOINT LeftFinger4
                {
                  OFFSET -0.6151 -8.0947 -3.5641
                  CHANNELS 6 Xposition Yposition Zposition Zrotation Xrotation Yrotation
                  JOINT LeftFinger41
                  {
                    OFFSET -0.4882 -2.341 -0.6462
                    CHANNELS 6 Xposition Yposition Zposition Zrotation Xrotation Yrotation
                    JOINT LeftFinger42
                    {
                      OFFSET -0.3575 -1.7167 -0.4742
                      CHANNELS 6 Xposition Yposition Zposition Zrotation Xrotation Yrotation
                      End Site
                      {
                        OFFSET -0.4187 -1.5237 -0.3496
                      }
                    }
                  }
                }
                JOINT LeftFinger0
                {
                  OFFSET -1.42 -1.8761 1.4223
                  CHANNELS 6 Xposition Yposition Zposition Zrotation Xrotation Yrotation
                  JOINT LeftFinger01
                  {
                    OFFSET -1.1471 -3.4929 2.6334
                    CHANNELS 6 Xposition Yposition Zposition Zrotation Xrotation Yrotation
                    JOINT LeftFinger02
                    {
                      OFFSET -0.823 -2.3 1.6571
                      CHANNELS 6 Xposition Yposition Zposition Zrotation Xrotation Yrotation
                      End Site
                      {
                        OFFSET -0.5822 -1.6914 1.1582
                      }
                    }
                  }
                }
              }
            }
          }
        }
        JOINT RightCollar
        {
          OFFSET -2.2603 21.606 7.4023
          CHANNELS 6 Xposition Yposition Zposition Zrotation Xrotation Yrotation
          JOINT RightShoulder
          {
            OFFSET -13.5187 -1.1334 -5.0155
            CHANNELS 6 Xposition Yposition Zposition Zrotation Xrotation Yrotation
            JOINT RightElbow
            {
              OFFSET 0.0994 -28.0499 -0.2431
              CHANNELS 6 Xposition Yposition Zposition Zrotation Xrotation Yrotation
              JOINT RightWrist
              {
                OFFSET -0.0679 -23.3996 -0.1402
                CHANNELS 6 Xposition Yposition Zposition Zrotation Xrotation Yrotation
                JOINT RightFinger1
                {
                  OFFSET -0.7932 -9.0691 2.5189
                  CHANNELS 6 Xposition Yposition Zposition Zrotation Xrotation Yrotation
                  JOINT RightFinger11
                  {
                    OFFSET 0.8272 -3.3923 0.5977
                    CHANNELS 6 Xposition Yposition Zposition Zrotation Xrotation Yrotation
                    JOINT RightFinger12
                    {
                      OFFSET 0.565 -2.3158 0.4082
                      CHANNELS 6 Xposition Yposition Zposition Zrotation Xrotation Yrotation
                      End Site
                      {
                        OFFSET 0.4919 -1.6479 0.2673
                      }
                    }
                  }
                }
                JOINT RightFinger2
                {
                  OFFSET -0.916 -9.2044 0.2193
                  CHANNELS 6 Xposition Yposition Zposition Zrotation Xrotation Yrotation
                  JOINT RightFinger21
                  {
                    OFFSET -0.0117 -4.1944 -0.0248
                    CHANNELS 6 Xposition Yposition Zposition Zrotation Xrotation Yrotation
                    JOINT RightFinger22
                    {
                      OFFSET -0.0071 -2.3249 -0.0142
                      CHANNELS 6 Xposition Yposition Zposition Zrotation Xrotation Yrotation
                      End Site
                      {
                        OFFSET 0.1475 -2.0882 0.0028
                      }
                    }
                  }
                }
                JOINT RightFinger3
                {
                  OFFSET -0.6113 -8.7231 -2.0637
                  CHANNELS 6 Xposition Yposition Zposition Zrotation Xrotation Yrotation
                  JOINT RightFinger31
                  {
                    OFFSET 0.1927 -3.8059 -0.2383
                    CHANNELS 6 Xposition Yposition Zposition Zrotation Xrotation Yrotation
                    JOINT RightFinger32
                    {
                      OFFSET 0.1091 -2.1688 -0.1362
                      CHANNELS 6 Xposition Yposition Zposition Zrotation Xrotation Yrotation
                      End Site
                      {
                        OFFSET 0.2358 -1.9176 -0.0906
                      }
                    }
                  }
                }
                JOINT RightFinger4
                {
                  OFFSET 0.6151 -8.0947 -3.564
                  CHANNELS 6 Xposition Yposition Zposition Zrotation Xrotation Yrotation
                  JOINT RightFinger41
                  {
                    OFFSET 0.4882 -2.341 -0.6462
                    CHANNELS 6 Xposition Yposition Zposition Zrotation Xrotation Yrotation
                    JOINT RightFinger42
                    {
                      OFFSET 0.3574 -1.7166 -0.4742
                      CHANNELS 6 Xposition Yposition Zposition Zrotation Xrotation Yrotation
                      End Site
                      {
                        OFFSET 0.4187 -1.5237 -0.3496
                      }
                    }
                  }
                }
                JOINT RightFinger0
                {
                  OFFSET 1.4199 -1.8761 1.4221
                  CHANNELS 6 Xposition Yposition Zposition Zrotation Xrotation Yrotation
                  JOINT RightFinger01
                  {
                    OFFSET 1.1472 -3.4929 2.6336
                    CHANNELS 6 Xposition Yposition Zposition Zrotation Xrotation Yrotation
                    JOINT RightFinger02
                    {
                      OFFSET 0.8229 -2.3 1.6571
                      CHANNELS 6 Xposition Yposition Zposition Zrotation Xrotation Yrotation
                      End Site
                      {
                        OFFSET 0.5822 -1.6914 1.1582
                      }
                    }
                  }
                }
              }
            }
          }
        }
      }
    }
  }
  JOINT RightHip
  {
    OFFSET -9.412 3.9771 -0.7758
    CHANNELS 6 Xposition Yposition Zposition Zrotation Xrotation Yrotation
    JOINT RightKnee
    {
      OFFSET -0.7531 -40.938 0
      CHANNELS 6 Xposition Yposition Zposition Zrotation Xrotation Yrotation
      JOINT RightAnkle
      {
        OFFSET 0 -40.1986 0
        CHANNELS 6 Xposition Yposition Zposition Zrotation Xrotation Yrotation
        JOINT RightToe
        {
          OFFSET 0 -4.4182 9.239
          CHANNELS 6 Xposition Yposition Zposition Zrotation Xrotation Yrotation
          End Site
          {
            OFFSET 0 0 6.1981
          }
        }
      }
    }
  }
  JOINT LeftHip
  {
    OFFSET 9.4119 3.9773 -0.7758
    CHANNELS 6 Xposition Yposition Zposition Zrotation Xrotation Yrotation
    JOINT LeftKnee
    {
      OFFSET 0.7532 -40.9383 0
      CHANNELS 6 Xposition Yposition Zposition Zrotation Xrotation Yrotation
      JOINT LeftAnkle
      {
        OFFSET 0 -40.1986 0
        CHANNELS 6 Xposition Yposition Zposition Zrotation Xrotation Yrotation
        JOINT LeftToe
        {
          OFFSET 0 -4.4182 9.239
          CHANNELS 6 Xposition Yposition Zposition Zrotation Xrotation Yrotation
          End Site
          {
            OFFSET 0 0 6.1981
          }
        }
      }
    }
  }
}
MOTION
Frames:	4
Frame Time:	0.0333333
5.72205e-005 65.662 3.42586 0 0 -0 0 8.7983 -4.7612 0 0 -0 0 8.0291 0.4195 0 0 -0 0 9.9351 -2.2114 0 0 -0 0 22.3885 -0.4656 0 0 -0 -0.0001 12.643 3.4389 0 0 -0 2.2603 21.606 7.4023 0 0 -12.5014 13.5163 -1.1332 -5.0146 88.1196 14.2451 10.6914 -0.0995 -28.05 -0.2431 -0.00160068 -0.00239207 0.000740045 0.0679 -23.3996 -0.1402 -8.4365e-005 7.00714e-005 -9.52055e-007 0.7932 -9.069 2.5189 9.93923e-017 -1.98785e-016 -1.59028e-015 -0.8272 -3.3923 0.5977 9.93923e-017 -5.96354e-016 -1.59028e-015 -0.5649 -2.3158 0.4082 -9.93923e-017 -5.96354e-016 -1.59028e-015 0.9159 -9.2044 0.2193 9.93923e-017 -1.98785e-016 -1.59028e-015 0.0117 -4.1944 -0.0248 -0.0128176 0.00232552 8.52707e-005 0.0071 -2.3249 -0.0142 9.93923e-017 5.96354e-016 -0 0.6113 -8.7231 -2.0637 9.93923e-017 -1.98785e-016 -1.59028e-015 -0.1927 -3.8059 -0.2383 -0.0160551 0.00299681 0.000857156 -0.1091 -2.1688 -0.1362 -2.48481e-016 0 3.18055e-015 -0.6151 -8.0947 -3.5641 9.93923e-017 -1.98785e-016 -1.59028e-015 -0.4882 -2.341 -0.6462 -0.0125865 0.0031206 0.00282719 -0.3575 -1.7167 -0.4742 0 1.98785e-016 -0 -1.42 -1.8761 1.4223 9.93923e-017 -1.98785e-016 -1.59028e-015 -1.1471 -3.4929 2.6334 9.93923e-017 -5.96354e-016 -1.59028e-015 -0.823 -2.3 1.6571 -9.93923e-017 -5.96354e-016 -1.59028e-015 -2.2603 21.606 7.4023 -0.865644 0.16582 7.03859 -13.5187 -1.1334 -5.0155 -88.0329 10.2057 -10.5567 0.0994 -28.0499 -0.2431 0.0015593 -0.00248883 -0.000788628 -0.0679 -23.3996 -0.1402 7.87605e-005 4.10553e-005 1.24965e-005 -0.7932 -9.0691 2.5189 -3.97569e-016 -7.95139e-016 3.18055e-015 0.8272 -3.3923 0.5977 -1.98785e-016 -3.97569e-016 3.18055e-015 0.565 -2.3158 0.4082 -1.98785e-016 0 3.18055e-015 -0.916 -9.2044 0.2193 -3.97569e-016 -7.95139e-016 3.18055e-015 -0.0117 -4.1944 -0.0248 0.0129473 0.00231697 -8.70038e-005 -0.0071 -2.3249 -0.0142 9.93923e-017 -7.95139e-016 1.59028e-015 -0.6113 -8.7231 -2.0637 -3.97569e-016 -7.95139e-016 3.18055e-015 0.1927 -3.8059 -0.2383 0.0163314 0.00303369 -0.000872333 0.1091 -2.1688 -0.1362 3.97569e-016 7.95139e-016 -3.18055e-015 0.6151 -8.0947 -3.564 -3.97569e-016 -7.95139e-016 3.18055e-015 0.4882 -2.341 -0.6462 0.0145763 0.00367772 -0.00326275 0.3574 -1.7166 -0.4742 9.93923e-017 -3.97569e-016 -0 1.4199 -1.8761 1.4221 -3.97569e-016 -7.95139e-016 3.18055e-015 1.1472 -3.4929 2.6336 -1.98785e-016 -3.97569e-016 3.18055e-015 0.8229 -2.3 1.6571 -1.98785e-016 0 3.18055e-015 -9.412 3.9771 -0.7758 3.42482 1.32465 -0.0626183 -0.7531 -40.938 0 0.000117508 0.717283 0.000978199 0 -40.1986 0 -3.4257 -2.04197 -0.0604716 8.88178e-016 -4.4182 9.239 6.47761e-025 0 -0 9.4119 3.9773 -0.7758 -3.42483 1.34017 0.0627307 0.7532 -40.9383 -2.22045e-016 -0.000193936 0.682302 -0.0013703 -8.88179e-016 -40.1986 0 3.42574 -2.02253 0.0595886 -8.88178e-016 -4.4182 9.239 -8.45714e-024 0 -7.40531e-025 
-0.223 39.2379 54.9891 132.698 -66.6673 -0.476487 3.55271e-015 8.7983 -4.7612 -0.224493 5.58568 -0.120391 0 8.0291 0.4195 -0.440278 11.1718 -0.220248 0 9.9351 -2.2114 -0.440287 11.1718 -0.220242 -3.55271e-015 22.3885 -0.4656 5.60965e-006 6.66043 -5.23181e-006 -0.0001 12.643 3.4389 -2.41182e-005 -47.4632 -1.84148e-005 2.2603 21.606 7.4023 20.9555 -28.3712 -6.32142 13.5163 -1.1332 -5.0146 53.8899 -29.6692 15.9798 -0.0995 -28.05 -0.2431 54.2232 -32.8822 110.235 0.0679 -23.3996 -0.1402 -28.3333 -8.03308 2.01808 0.7932 -9.069 2.5189 -4.99868e-006 -5.41198e-007 8.92733e-007 -0.8272 -3.3923 0.5977 8.516e-006 -9.06956e-007 1.16808e-006 -0.5649 -2.3158 0.4082 4.67911e-006 6.57276e-006 -2.95974e-006 0.9159 -9.2044 0.2193 -4.99868e-006 -5.41198e-007 8.92733e-007 0.0117 -4.1944 -0.0248 -0.0128775 0.0023371 9.0724e-005 0.0071 -2.3249 -0.0142 4.35495e-006 1.88871e-006 -1.99781e-006 0.6113 -8.7231 -2.0637 -4.99868e-006 -5.41198e-007 8.92733e-007 -0.1927 -3.8059 -0.2383 -0.0161449 0.0030163 0.000865303 -0.1091 -2.1688 -0.1362 2.14536e-007 -6.36111e-015 3.6843e-007 -0.6151 -8.0947 -3.5641 -4.99868e-006 -5.41198e-007 8.92733e-007 -0.4882 -2.341 -0.6462 -0.01273 0.00315909 0.00285844 -0.3575 -1.7167 -0.4742 -5.08267e-006 -1.90035e-006 4.72617e-006 -1.42 -1.8761 1.4223 -4.99868e-006 -5.41198e-007 8.92733e-007 -1.1471 -3.4929 2.6334 8.516e-006 -9.06956e-007 1.16808e-006 -0.823 -2.3 1.6571 4.67911e-006 6.57276e-006 -2.95974e-006 -2.2603 21.606 7.4023 -23.0843 -27.882 -1.1402 -13.5187 -1.1334 -5.0155 -51.3278 -32.482 -12.188 0.0994 -28.0499 -0.2431 -52.176 -32.9702 -110.429 -0.0679 -23.3996 -0.1402 27.7477 -8.78925 -1.76586 -0.7932 -9.0691 2.5189 -4.02539e-015 0 -2.98177e-016 0.8272 -3.3923 0.5977 -1.65243e-006 7.84665e-007 -2.98865e-006 0.565 -2.3158 0.4082 -6.63444e-015 6.36111e-015 3.37934e-015 -0.916 -9.2044 0.2193 -4.02539e-015 0 -2.98177e-016 -0.0117 -4.1944 -0.0248 0.0129256 0.00231612 -8.71401e-005 -0.0071 -2.3249 -0.0142 -1.09332e-015 -6.36111e-015 -1.2424e-015 -0.6113 -8.7231 -2.0637 -4.02539e-015 0 -2.98177e-016 0.1927 -3.8059 -0.2383 0.0163658 0.00304205 -0.000877017 0.1091 -2.1688 -0.1362 4.97354e-006 -1.14696e-006 -8.04314e-007 0.6151 -8.0947 -3.564 -4.02539e-015 0 -2.98177e-016 0.4882 -2.341 -0.6462 0.0146179 0.00368928 -0.00326951 0.3574 -1.7166 -0.4742 -4.13057e-007 1.30117e-006 -7.47189e-007 1.4199 -1.8761 1.4221 -4.02539e-015 0 -2.98177e-016 1.1472 -3.4929 2.6336 -1.65243e-006 7.84665e-007 -2.98865e-006 0.8229 -2.3 1.6571 -6.63444e-015 6.36111e-015 3.37934e-015 -9.412 3.9771 -0.7758 -48.0412 -49.0952 -35.703 -0.7531 -40.938 -7.10543e-015 31.345 67.2826 -35.7184 0 -40.1986 -3.55271e-015 -8.37531 24.3191 0.655307 0 -4.4182 9.239 6.36111e-015 -6.36111e-015 -0 9.4119 3.9773 -0.7758 41.2202 -47.2937 29.3798 0.7532 -40.9383 0 -30.9712 66.9995 35.0514 -7.10543e-015 -40.1986 0 7.75258 23.2651 -0.617646 -7.10543e-015 -4.4182 9.239 -5.1934e-006 -2.39385e-007 2.81261e-006 
1.51205 17.5435 72.9819 15.3855 -83.3257 -177.645 8.88178e-016 8.7983 -4.7612 -0.300448 8.08877 -0.205988 0 8.0291 0.4195 -0.58 16.1786 -0.374319 8.88178e-016 9.9351 -2.2114 -0.580001 16.1786 -0.37432 4.44089e-016 22.3885 -0.4656 1.52645e-006 9.65755 2.6242e-008 -0.0001 12.643 3.4389 -9.38305e-006 -68.6117 -1.07745e-005 2.2603 21.606 7.4023 32.9531 -40.8101 -2.34357 13.5163 -1.1332 -5.0146 44.0656 -50.2884 21.5011 -0.0995 -28.05 -0.2431 84.4403 -43.4153 164.424 0.0679 -23.3996 -0.1402 -41.0863 -11.8719 3.51834 0.7932 -9.069 2.5189 -3.18055e-015 -1.98785e-016 -4.96962e-016 -0.8272 -3.3923 0.5977 -3.18055e-015 -1.98785e-016 -0 -0.5649 -2.3158 0.4082 -3.18055e-015 -3.97569e-016 3.97569e-016 0.9159 -9.2044 0.2193 -3.18055e-015 -1.98785e-016 -4.96962e-016 0.0117 -4.1944 -0.0248 -0.0128216 0.0023305 8.36921e-005 0.0071 -2.3249 -0.0142 6.36111e-015 -1.98785e-016 -7.95139e-016 0.6113 -8.7231 -2.0637 -3.18055e-015 -1.98785e-016 -4.96962e-016 -0.1927 -3.8059 -0.2383 -0.0160398 0.00299604 0.00085645 -0.1091 -2.1688 -0.1362 -3.18055e-015 -1.27222e-014 2.98177e-016 -0.6151 -8.0947 -3.5641 -3.18055e-015 -1.98785e-016 -4.96962e-016 -0.4882 -2.341 -0.6462 -0.0125812 0.0031109 0.00283085 -0.3575 -1.7167 -0.4742 6.36111e-015 5.96354e-016 -4.96962e-016 -1.42 -1.8761 1.4223 -3.18055e-015 -1.98785e-016 -4.96962e-016 -1.1471 -3.4929 2.6334 -3.18055e-015 -1.98785e-016 -0 -0.823 -2.3 1.6571 -3.18055e-015 -3.97569e-016 3.97569e-016 -2.2603 21.606 7.4023 -36.271 -40.0178 -6.33878 -13.5187 -1.1334 -5.0155 -38.3019 -52.2818 -15.0804 0.0994 -28.0499 -0.2431 -82.9679 -44.2741 -164.849 -0.0679 -23.3996 -0.1402 40.3268 -12.8169 -3.09721 -0.7932 -9.0691 2.5189 9.54166e-015 -5.1684e-015 -7.15625e-015 0.8272 -3.3923 0.5977 5.9885e-006 7.43688e-006 6.81767e-006 0.565 -2.3158 0.4082 4.46039e-006 7.03984e-006 6.71226e-006 -0.916 -9.2044 0.2193 9.54166e-015 -5.1684e-015 -7.15625e-015 -0.0117 -4.1944 -0.0248 0.0129437 0.00231681 -8.46741e-005 -0.0071 -2.3249 -0.0142 -1.37935e-033 -3.97569e-016 -1.98785e-016 -0.6113 -8.7231 -2.0637 9.54166e-015 -5.1684e-015 -7.15625e-015 0.1927 -3.8059 -0.2383 0.0163416 0.00303395 -0.000872605 0.1091 -2.1688 -0.1362 -3.18055e-015 -8.34896e-015 -5.76476e-015 0.6151 -8.0947 -3.564 9.54166e-015 -5.1684e-015 -7.15625e-015 0.4882 -2.341 -0.6462 0.0145513 0.00368154 -0.00325576 0.3574 -1.7166 -0.4742 3.18055e-015 -5.1684e-015 -4.77083e-015 1.4199 -1.8761 1.4221 9.54166e-015 -5.1684e-015 -7.15625e-015 1.1472 -3.4929 2.6336 5.9885e-006 7.43688e-006 6.81767e-006 0.8229 -2.3 1.6571 4.46039e-006 7.03984e-006 6.71226e-006 -9.412 3.9771 -0.7758 -100.074 -56.1005 -73.2218 -0.7531 -40.938 -1.42109e-014 126.024 68.1916 -127.421 -3.55271e-015 -40.1986 0 -10.4665 34.9434 1.02565 3.55271e-015 -4.4182 9.239 3.18055e-015 0 6.36111e-015 9.4119 3.9773 -0.7758 88.6144 -59.3281 64.5752 0.7532 -40.9383 -1.42109e-014 -125.259 68.2944 126.98 -2.66453e-015 -40.1986 7.10543e-015 10.5441 34.4407 -0.757792 0 -4.4182 9.239 -6.35522e-008 -3.79772e-008 -2.22139e-006 
0.107238 22.0851 69.2883 89.3039 -89.7452 -90.4289 0 8.7983 -4.7612 -0.284217 7.50927 -0.185816 0 8.0291 0.4195 -0.550822 15.0195 -0.338093 0 9.9351 -2.2114 -0.550823 15.0195 -0.338094 0 22.3885 -0.4656 3.19883e-006 8.99146 2.67759e-006 -0.0001 12.643 3.4389 -9.47769e-007 -63.4457 -7.74688e-007 2.2603 21.606 7.4023 30.0515 -37.9342 -3.98623 13.5163 -1.1332 -5.0146 46.396 -45.4605 20.4138 -0.0995 -28.05 -0.2431 76.6964 -41.1955 151.638 0.0679 -23.3996 -0.1402 -38.619 -11.09 3.04615 0.7932 -9.069 2.5189 1.59028e-015 0 1.19271e-015 -0.8272 -3.3923 0.5977 3.10315e-006 1.52258e-006 -5.99102e-006 -0.5649 -2.3158 0.4082 3.18055e-015 0 -7.95139e-016 0.9159 -9.2044 0.2193 1.59028e-015 0 1.19271e-015 0.0117 -4.1944 -0.0248 -0.0128197 0.00232358 9.67742e-005 0.0071 -2.3249 -0.0142 1.59028e-015 7.95139e-016 -4.37326e-015 0.6113 -8.7231 -2.0637 1.59028e-015 0 1.19271e-015 -0.1927 -3.8059 -0.2383 -0.0160281 0.00300072 0.000854082 -0.1091 -2.1688 -0.1362 2.11551e-006 -6.35019e-007 1.93129e-006 -0.6151 -8.0947 -3.5641 1.59028e-015 0 1.19271e-015 -0.4882 -2.341 -0.6462 -0.0126066 0.00313233 0.0028281 -0.3575 -1.7167 -0.4742 1.0332e-006 -5.86646e-006 6.30437e-006 -1.42 -1.8761 1.4223 1.59028e-015 0 1.19271e-015 -1.1471 -3.4929 2.6334 3.10315e-006 1.52258e-006 -5.99102e-006 -0.823 -2.3 1.6571 3.18055e-015 0 -7.95139e-016 -2.2603 21.606 7.4023 -32.9416 -37.2575 -4.30609 -13.5187 -1.1334 -5.0155 -41.6242 -47.6932 -14.8246 0.0994 -28.0499 -0.2431 -74.9519 -41.9334 -151.925 -0.0679 -23.3996 -0.1402 37.9338 -11.9238 -2.63544 -0.7932 -9.0691 2.5189 5.51738e-032 1.59028e-015 -1.98785e-015 0.8272 -3.3923 0.5977 -1.07389e-005 1.18509e-005 8.51784e-007 0.565 -2.3158 0.4082 -4.90568e-007 1.70688e-007 1.40685e-006 -0.916 -9.2044 0.2193 5.51738e-032 1.59028e-015 -1.98785e-015 -0.0117 -4.1944 -0.0248 0.0129147 0.00230028 -9.43823e-005 -0.0071 -2.3249 -0.0142 -1.59028e-015 3.18055e-015 -2.78299e-015 -0.6113 -8.7231 -2.0637 5.51738e-032 1.59028e-015 -1.98785e-015 0.1927 -3.8059 -0.2383 0.0163312 0.00304478 -0.000880222 0.1091 -2.1688 -0.1362 4.77083e-015 0 2.78299e-015 0.6151 -8.0947 -3.564 5.51738e-032 1.59028e-015 -1.98785e-015 0.4882 -2.341 -0.6462 0.0145936 0.0036837 -0.00326555 0.3574 -1.7166 -0.4742 -2.32295e-006 -2.16136e-006 -3.97008e-006 1.4199 -1.8761 1.4221 5.51738e-032 1.59028e-015 -1.98785e-015 1.1472 -3.4929 2.6336 -1.07389e-005 1.18509e-005 8.51784e-007 0.8229 -2.3 1.6571 -4.90568e-007 1.70688e-007 1.40685e-006 -9.412 3.9771 -0.7758 -87.175 -56.2509 -64.1127 -0.7531 -40.938 0 108.994 72.4309 -111.47 0 -40.1986 0 -10.0877 32.3694 0.891896 -3.55271e-015 -4.4182 9.23901 1.27222e-014 9.54166e-015 -1.43125e-014 9.4119 3.9773 -0.7758 76.0359 -57.9815 54.9598 0.7532 -40.9383 0 -108.704 72.3918 111.176 0 -40.1986 7.10543e-015 9.9384 31.6559 -0.778739 0 -4.4182 9.239 -2.01882e-006 2.72789e-006 8.7481e-006 
